<?xml version="1.0" standalone="no"?><!DOCTYPE svg PUBLIC "-//W3C//DTD SVG 1.1//EN" "http://www.w3.org/Graphics/SVG/1.1/DTD/svg11.dtd"><svg t="1684049804118" class="icon" viewBox="0 0 1024 1024" version="1.1" xmlns="http://www.w3.org/2000/svg" p-id="2891" xmlns:xlink="http://www.w3.org/1999/xlink" width="48" height="48"><path d="M64 0l0 1024 896 0L960 0 64 0zM576 832 192 832l0-64 384 0L576 832zM576 640 192 640 192 576l384 0L576 640zM576 448 192 448 192 384l384 0L576 448zM576 256 192 256 192 192l384 0L576 256zM768 896l-64-128 0-64 128 0 0 64L768 896zM832 640l-128 0L704 320l128 0L832 640zM832 256l-128 0L704 192c0 0 0-64 64-64s64 64 64 64L832 256z" fill="#666666" p-id="2892"></path></svg>